<?xml version="1.0" ?><!-- Uploaded to: SVG Repo, www.svgrepo.com, Generator: SVG Repo Mixer Tools -->
<svg width="800px" height="800px" viewBox="0 0 64 64" data-name="Lovely Valentine's day" id="Lovely_Valentine_s_day" xmlns="http://www.w3.org/2000/svg"><defs><style>.cls-1{fill:#e29e9a;}.cls-2{fill:#268484;}.cls-3{fill:#623905;}.cls-4{fill:#d26274;}.cls-5{fill:#f6e3a6;}</style></defs><title/><circle class="cls-1" cx="32" cy="32" r="28"/><path class="cls-2" d="M14,12H50a2,2,0,0,1,2,2V24a0,0,0,0,1,0,0H12a0,0,0,0,1,0,0V14A2,2,0,0,1,14,12Z"/><path class="cls-3" d="M52,25H12a1,1,0,0,1-1-1V14a3,3,0,0,1,3-3H50a3,3,0,0,1,3,3V24A1,1,0,0,1,52,25ZM13,23H51V14a1,1,0,0,0-1-1H14a1,1,0,0,0-1,1Z"/><path class="cls-4" d="M12,24H52a0,0,0,0,1,0,0V50a2,2,0,0,1-2,2H14a2,2,0,0,1-2-2V24A0,0,0,0,1,12,24Z"/><path class="cls-3" d="M50,53H14a3,3,0,0,1-3-3V24a1,1,0,0,1,1-1H52a1,1,0,0,1,1,1V50A3,3,0,0,1,50,53ZM13,25V50a1,1,0,0,0,1,1H50a1,1,0,0,0,1-1V25Z"/><rect class="cls-1" height="22" rx="2" width="34" x="15" y="27"/><rect class="cls-5" height="16" width="5" x="19" y="30"/><path class="cls-3" d="M24,47H19a1,1,0,0,1-1-1V30a1,1,0,0,1,1-1h5a1,1,0,0,1,1,1V46A1,1,0,0,1,24,47Zm-4-2h3V31H20Z"/><polygon class="cls-5" points="45 37 45 42 42 42 42 46 37 46 37 42 28 42 28 30 33 30 33 37 37 37 37 30 42 30 42 37 45 37"/><path class="cls-3" d="M42,47H37a1,1,0,0,1-1-1V43H28a1,1,0,0,1-1-1V30a1,1,0,0,1,1-1h5a1,1,0,0,1,1,1v6h2V30a1,1,0,0,1,1-1h5a1,1,0,0,1,1,1v6h2a1,1,0,0,1,1,1v5a1,1,0,0,1-1,1H43v3A1,1,0,0,1,42,47Zm-4-2h3V42a1,1,0,0,1,1-1h2V38H42a1,1,0,0,1-1-1V31H38v6a1,1,0,0,1-1,1H33a1,1,0,0,1-1-1V31H29V41h8a1,1,0,0,1,1,1Z"/><path class="cls-5" d="M48.862,16.856a1.833,1.833,0,0,1-.545,1.312L47.005,19.48l-1.3,1.3a1,1,0,0,1-1.416,0l-1.3-1.3-1.24-1.24a1.927,1.927,0,0,1-.275-2.458,1.858,1.858,0,0,1,2.828-.239l.693.694.613-.613a1.948,1.948,0,0,1,2.347-.357A1.832,1.832,0,0,1,48.862,16.856Z"/><path class="cls-3" d="M45,22.076a1.987,1.987,0,0,1-1.416-.588l-2.537-2.541a2.935,2.935,0,0,1-.38-3.748A2.856,2.856,0,0,1,45,14.825a2.918,2.918,0,0,1,3.471-.416,2.85,2.85,0,0,1,.546,4.472l-2.6,2.607A1.987,1.987,0,0,1,45,22.076ZM42.993,16c-.024,0-.047,0-.071,0a.855.855,0,0,0-.632.363.934.934,0,0,0,.17,1.166L45,20.076l2.611-2.615a.85.85,0,0,0-.165-1.336.944.944,0,0,0-1.126.206l-.613.613a1,1,0,0,1-1.414,0L43.6,16.25A.856.856,0,0,0,42.993,16Z"/><path class="cls-5" d="M35.862,16.856a1.833,1.833,0,0,1-.545,1.312L34.005,19.48l-1.3,1.3a1,1,0,0,1-1.416,0l-1.3-1.3-1.24-1.24a1.927,1.927,0,0,1-.275-2.458,1.858,1.858,0,0,1,2.828-.239l.693.694.613-.613a1.948,1.948,0,0,1,2.347-.357A1.832,1.832,0,0,1,35.862,16.856Z"/><path class="cls-3" d="M32,22.076a1.987,1.987,0,0,1-1.416-.588l-2.537-2.541a2.935,2.935,0,0,1-.38-3.748A2.856,2.856,0,0,1,32,14.825a2.918,2.918,0,0,1,3.471-.416,2.85,2.85,0,0,1,.546,4.472l-2.6,2.607A1.987,1.987,0,0,1,32,22.076ZM29.993,16c-.024,0-.047,0-.071,0a.855.855,0,0,0-.632.363.934.934,0,0,0,.17,1.166L32,20.076l2.611-2.615a.85.85,0,0,0-.165-1.336.944.944,0,0,0-1.126.206l-.613.613a1,1,0,0,1-1.414,0L30.6,16.25A.856.856,0,0,0,29.993,16Z"/><path class="cls-5" d="M22.862,16.856a1.833,1.833,0,0,1-.545,1.312L21.005,19.48l-1.3,1.3a1,1,0,0,1-1.416,0l-1.3-1.3-1.24-1.24a1.927,1.927,0,0,1-.275-2.458,1.858,1.858,0,0,1,2.828-.239l.693.694.613-.613a1.948,1.948,0,0,1,2.347-.357A1.832,1.832,0,0,1,22.862,16.856Z"/><path class="cls-3" d="M19,22.076a1.987,1.987,0,0,1-1.416-.588l-2.537-2.541a2.935,2.935,0,0,1-.38-3.748A2.856,2.856,0,0,1,19,14.825a2.918,2.918,0,0,1,3.471-.416,2.85,2.85,0,0,1,.546,4.472l-2.6,2.607A1.987,1.987,0,0,1,19,22.076ZM16.993,16c-.024,0-.047,0-.071,0a.855.855,0,0,0-.632.363.934.934,0,0,0,.17,1.166L19,20.076l2.611-2.615a.85.85,0,0,0-.165-1.336.944.944,0,0,0-1.126.206l-.613.613a1,1,0,0,1-1.414,0L17.6,16.25A.856.856,0,0,0,16.993,16Z"/></svg>