<?xml version="1.0" ?>
<!-- Uploaded to: SVG Repo, www.svgrepo.com, Generator: SVG Repo Mixer Tools -->
<svg width="800px" height="800px" viewBox="0 0 32 32" xmlns="http://www.w3.org/2000/svg">
<title/>
<g data-name="filled line" id="filled_line">
<path d="M17.81,2H14.19A5.1958,5.1958,0,0,0,9,7.19V9a1,1,0,0,0,1,1H22a1,1,0,0,0,1-1V7.19A5.1958,5.1958,0,0,0,17.81,2Z" style="fill:#2380cc"/>
<path d="M9.499,11.6733a4.9946,4.9946,0,0,0-6.4736,7.3531A4.4963,4.4963,0,0,0,7.5,24a4.2285,4.2285,0,0,0,1.1543-.1582.9993.9993,0,0,0,.66-1.3174A12.8341,12.8341,0,0,1,8.5,18a8.52,8.52,0,0,1,1.3809-4.7671A1.0007,1.0007,0,0,0,10,12.76v-.22A1.0016,1.0016,0,0,0,9.499,11.6733Z" style="fill:#d32344"/>
<path d="M30,16a4.9945,4.9945,0,0,0-7.499-4.3267A1.0016,1.0016,0,0,0,22,12.54v.22a1.0007,1.0007,0,0,0,.1191.4731A8.52,8.52,0,0,1,23.5,18a12.8318,12.8318,0,0,1-.8145,4.5244.9993.9993,0,0,0,.66,1.3174A4.2285,4.2285,0,0,0,24.5,24a4.4963,4.4963,0,0,0,4.4746-4.9736A4.9969,4.9969,0,0,0,30,16Z" style="fill:#d32344"/>
<path d="M24,12.5093V12a1,1,0,0,0-1-1H9a1,1,0,0,0-1,1v.5093A10.2164,10.2164,0,0,0,6.5,18a14.6612,14.6612,0,0,0,.9463,5.2373C9.043,27.4092,12.32,30,16,30s6.957-2.5908,8.5547-6.7646A14.6644,14.6644,0,0,0,25.5,18,10.2164,10.2164,0,0,0,24,12.5093Z" style="fill:#eeeced"/>
<circle cx="16" cy="19" r="3" style="fill:#d32344"/>
<path d="M19,14H18a1,1,0,0,0,0,2h1a1,1,0,0,0,0-2Z" style="fill:#f6ae2d"/>
<path d="M14,14H13a1,1,0,0,0,0,2h1a1,1,0,0,0,0-2Z" style="fill:#f6ae2d"/>
<path d="M19.7686,22.3594a1.0012,1.0012,0,0,0-1.4092-.128,3.2365,3.2365,0,0,1-4.7188,0,1.0006,1.0006,0,1,0-1.2812,1.5372A5.6911,5.6911,0,0,0,16,25.2568a5.6911,5.6911,0,0,0,3.6406-1.4882A1.0013,1.0013,0,0,0,19.7686,22.3594Z" style="fill:#d32344"/>
<path d="M21.8125,8H10.1875A3.1908,3.1908,0,0,0,7,11.1875V12a1,1,0,0,0,1,1H24a1,1,0,0,0,1-1v-.8125A3.1908,3.1908,0,0,0,21.8125,8Z" style="fill:#246eb9"/>
<path d="M13,19a3,3,0,1,0,3-3A3.0033,3.0033,0,0,0,13,19Zm3-1a1,1,0,1,1-1,1A1.0006,1.0006,0,0,1,16,18Z"/>
<path d="M19,14H18a1,1,0,0,0,0,2h1a1,1,0,0,0,0-2Z"/>
<path d="M13,16h1a1,1,0,0,0,0-2H13a1,1,0,0,0,0,2Z"/>
<path d="M18.3594,22.2314a3.2365,3.2365,0,0,1-4.7188,0,1.0006,1.0006,0,1,0-1.2812,1.5372A5.6911,5.6911,0,0,0,16,25.2568a5.6911,5.6911,0,0,0,3.6406-1.4882,1.0006,1.0006,0,0,0-1.2812-1.5372Z"/>
<path d="M30,16a5.0059,5.0059,0,0,0-5-5l-.0189.0013A3.1817,3.1817,0,0,0,23,8.2346V7.19A5.1958,5.1958,0,0,0,17.81,2H14.19A5.1958,5.1958,0,0,0,9,7.19V8.2346a3.1817,3.1817,0,0,0-1.9811,2.7667L7,11a4.9946,4.9946,0,0,0-3.9746,8.0264A4.4963,4.4963,0,0,0,7.5,24c.087,0,.1714-.0123.2574-.0175C9.4448,27.7152,12.5448,30,16,30s6.5543-2.2841,8.2427-6.0175c.086.0052.17.0175.2573.0175a4.4963,4.4963,0,0,0,4.4746-4.9736A4.9969,4.9969,0,0,0,30,16ZM9.0146,11a1.19,1.19,0,0,1,1.1729-1h11.625a1.19,1.19,0,0,1,1.1729,1ZM11,7.19A3.1942,3.1942,0,0,1,14.19,4H17.81A3.1942,3.1942,0,0,1,21,7.19V8H11ZM5,19.5a2.1779,2.1779,0,0,1,.0605-.52,1,1,0,0,0-.2382-.9209A2.9973,2.9973,0,0,1,7,13a2.948,2.948,0,0,1,.7012.0835l-.0152.0312c-.0316.0626-.06.1242-.09.1861-.0658.1336-.1308.2675-.1911.3993-.0354.0771-.0679.155-.1014.2319-.05.1161-.1.2332-.1464.35-.0328.0829-.0634.1675-.0939.251-.0414.1133-.0811.2284-.1182.3439-.0277.0862-.0542.1744-.0794.2623-.0339.1179-.0649.2391-.0942.361-.0216.09-.0431.1805-.0622.273-.0267.1293-.0492.2643-.0709.4-.0147.0919-.0307.1828-.043.2779-.02.1551-.0345.32-.0481.4844-.007.0844-.0167.1649-.022.2522-.0155.2579-.0247.5267-.0247.813,0,.4109.0215.8171.0536,1.2209.0093.1175.0227.234.0348.3509q.0467.4529.12.8982c.0184.1115.0351.2233.056.334.0734.3879.1572.7727.2615,1.1511A2.5034,2.5034,0,0,1,5,19.5ZM16,28c-2.8311,0-5.3926-2.0986-6.6855-5.4756A12.8341,12.8341,0,0,1,8.5,18a8.52,8.52,0,0,1,1.3809-4.7671,1.0018,1.0018,0,0,0,.089-.2309L9.9707,13H22.0293l.0008.002a1.0018,1.0018,0,0,0,.089.2309A8.52,8.52,0,0,1,23.5,18c0,.423-.0245.8454-.0652,1.2655a12.6189,12.6189,0,0,1-.7493,3.2589v0C21.3912,25.9022,18.83,28,16,28Zm11.1777-9.94a1,1,0,0,0-.2382.9209A2.1779,2.1779,0,0,1,27,19.5a2.5034,2.5034,0,0,1-2.0264,2.4551c.1042-.378.188-.7624.2613-1.15.0213-.112.038-.2251.0567-.3379q.0734-.4434.12-.8941c.0122-.1178.0256-.235.0351-.3535.032-.4034.0535-.8093.0535-1.22,0-.2863-.0092-.5552-.0247-.8131-.0053-.0866-.0149-.1662-.0218-.25-.0137-.1661-.0281-.3315-.0483-.4876-.0123-.0944-.0282-.1846-.0428-.2758-.0218-.1357-.0443-.2711-.0711-.4007-.0191-.0925-.0406-.1832-.0622-.273-.0293-.1219-.06-.2431-.0942-.361-.0252-.0879-.0517-.1761-.0794-.2623-.0371-.1157-.0769-.231-.1184-.3447-.03-.0829-.0607-.1668-.0932-.2491-.0465-.1175-.0967-.2355-.1477-.3526-.0332-.0763-.0655-.1534-.1005-.23-.06-.1319-.1254-.2658-.1912-.3995-.03-.0619-.0589-.1235-.09-.1861l-.0152-.0312A2.948,2.948,0,0,1,25,13a2.9973,2.9973,0,0,1,2.1777,5.06Z"/>
</g>
</svg>